<?xml version="1.0" standalone="no"?>
<!DOCTYPE svg PUBLIC "-//W3C//DTD SVG 20010904//EN"
 "http://www.w3.org/TR/2001/REC-SVG-20010904/DTD/svg10.dtd">
<svg version="1.0" xmlns="http://www.w3.org/2000/svg"
 width="512.000000pt" height="512.000000pt" viewBox="0 0 512.000000 512.000000"
 preserveAspectRatio="xMidYMid meet">
<metadata>
Created by potrace 1.11, written by Peter Selinger 2001-2013
</metadata>
<g transform="translate(0.000000,512.000000) scale(0.100000,-0.100000)"
fill="#000000" stroke="none">
<path d="M0 2560 l0 -2560 2560 0 2560 0 0 2560 0 2560 -2560 0 -2560 0 0
-2560z m798 943 c5 -38 45 -328 88 -645 43 -318 81 -574 85 -570 3 4 52 284
109 622 56 338 104 625 107 638 5 22 8 22 152 22 l146 0 100 -645 c54 -355
102 -642 105 -638 4 5 46 283 94 618 49 336 90 622 93 638 l6 27 173 0 c96 0
174 -4 174 -9 0 -9 -343 -1870 -361 -1958 l-10 -53 -169 0 -168 0 -6 28 c-3
15 -47 270 -97 567 -50 297 -94 543 -98 547 -4 5 -54 -251 -111 -567 l-103
-575 -168 0 -168 0 -10 53 c-6 28 -85 475 -176 992 -91 517 -168 948 -171 958
-5 16 8 17 184 17 l190 0 10 -67z m2712 -103 l0 -170 -180 0 -180 0 0 -840 0
-840 -195 0 -195 0 0 840 0 840 -185 0 -185 0 0 170 0 170 560 0 560 0 0 -170z
m1200 10 l0 -160 -285 0 -285 0 0 -260 0 -260 208 -2 207 -3 3 -157 3 -158
-211 0 -210 0 0 -430 0 -430 -190 0 -190 0 0 1010 0 1010 475 0 475 0 0 -160z"/>
</g>
</svg>
