<svg xmlns="http://www.w3.org/2000/svg" viewBox="0 0 27.45 45.62"><title>Asset 2</title><g id="Layer_2" data-name="Layer 2"><g id="Layer_1-2" data-name="Layer 1"><path d="M20.48,4.39A4.39,4.39,0,1,1,16.09,0a4.39,4.39,0,0,1,4.39,4.39Z" fill="#fff"/><path d="M26.34,23.15c-.86-.39-6.52-3.2-6.52-3.2s-2-4.28-3-6.62-1.68-2.78-3.07-2.78H11.56a3.7,3.7,0,0,0-2.22.8l-5.8,4.93a2.24,2.24,0,0,0-1,1.35L1.26,26A1.63,1.63,0,0,0,2.59,28,1.53,1.53,0,0,0,4.4,26.91c.15-.77,1.33-7.6,1.33-7.6L9.51,16.4C8.88,19.3,8.25,22.47,8,23.55a5.65,5.65,0,0,0,1.29,4.34c.66,1,9.22,14.49,10.35,16s2.16,2.2,3.73,1.32c1.32-.74,1.1-2.42.37-3.66s-9.37-15.3-9.37-15.3l1.45-6.26s1,1.43,1.52,2.24a2.73,2.73,0,0,0,1.18.9c.8.44,4.67,2.2,5.84,2.73s2.34.64,2.86-.28a1.8,1.8,0,0,0-.92-2.39Z" fill="#fff"/><path d="M7.45,28,5.48,35,.81,41.76C0,42.87-.53,44.23.77,45.22c1.47,1.11,2.64-.34,3.4-1.19S7.7,39.29,8.5,38.28a7.18,7.18,0,0,0,1.06-1.81C9.7,36.1,10.4,34,10.77,33Z" fill="#fff"/></g></g></svg>