<svg xmlns="http://www.w3.org/2000/svg" viewBox="0 0 38.68 38.68"><title>Asset 1</title><g id="Layer_2" data-name="Layer 2"><g id="Layer_1-2" data-name="Layer 1"><rect x="15.38" y="27.32" width="8.04" height="11.36" fill="#fff"/><path d="M16.71,3.67h3.92V5.95h1V0h-5a.61.61,0,0,0-.63.54V2.8C16.08,3.11,16.4,3.67,16.71,3.67Z" fill="#fff"/><path d="M38.65,12.6a5.86,5.86,0,0,0-5.88-5.78H5.91A5.86,5.86,0,0,0,0,12.6l0,13.1H38.68Zm-17-1.41h-1V7.69h1Zm5.73,12.59,0-10.74a4.81,4.81,0,0,1,9.63,0l0,10.74Z" fill="#fff"/></g></g></svg>