<svg xmlns="http://www.w3.org/2000/svg" viewBox="0 0 168.34 73.01"><title>Mail-or-person</title><g id="Layer_2" data-name="Layer 2"><g id="Layer_1-2" data-name="Layer 1"><rect x="26.21" y="46.57" width="13.71" height="25.24" fill="#333"/><path d="M28.48,6.26h6.68v3.87h1.79V0H28.48a1,1,0,0,0-1.07.93V4.77C27.41,5.29,28,6.26,28.48,6.26Z" fill="#333"/><path d="M65.87,21.48a10,10,0,0,0-10-9.85H10.08a10,10,0,0,0-10,9.85L0,43.81H65.92Zm-28.92-2.4H35.16v-6h1.79Zm9.77,21.46,0-18.3a8.21,8.21,0,0,1,16.41,0l0,18.31Z" fill="#333"/><path d="M91.19,29.32a6.42,6.42,0,0,1,2.51.46,5.23,5.23,0,0,1,1.84,1.27A5.42,5.42,0,0,1,96.67,33a7.46,7.46,0,0,1,.39,2.46,11.7,11.7,0,0,1-.51,3.45,9,9,0,0,1-1.52,3,7.44,7.44,0,0,1-2.54,2.06,7.75,7.75,0,0,1-3.53.77,6.63,6.63,0,0,1-2.52-.45,5.13,5.13,0,0,1-1.86-1.27A5.56,5.56,0,0,1,83.42,41a7.38,7.38,0,0,1-.4-2.48,11.09,11.09,0,0,1,.53-3.42,9.12,9.12,0,0,1,1.56-2.95,7.75,7.75,0,0,1,2.56-2.07A7.62,7.62,0,0,1,91.19,29.32Zm-.25,2.62a3.88,3.88,0,0,0-2.13.57A4.78,4.78,0,0,0,87.33,34a7,7,0,0,0-.87,2.08,9.52,9.52,0,0,0-.29,2.3,4.33,4.33,0,0,0,.75,2.68,2.64,2.64,0,0,0,2.24,1,3.83,3.83,0,0,0,2.12-.57A4.83,4.83,0,0,0,92.75,40a7,7,0,0,0,.87-2.08,9.6,9.6,0,0,0,.29-2.32,4.35,4.35,0,0,0-.74-2.65A2.6,2.6,0,0,0,90.94,31.94Z" fill="#333"/><path d="M101,44.3H98l3.09-14.61h5a6.84,6.84,0,0,1,2.38.36A4.14,4.14,0,0,1,110,31a3.4,3.4,0,0,1,.82,1.33,4.87,4.87,0,0,1,.25,1.52,4.27,4.27,0,0,1-.91,2.85,5.07,5.07,0,0,1-2.38,1.54l1.82,6.06h-3.19L105,38.82h-2.8Zm4.15-8a5.12,5.12,0,0,0,1.1-.11,2.34,2.34,0,0,0,.89-.39,1.87,1.87,0,0,0,.59-.74,2.67,2.67,0,0,0,.21-1.14,1.82,1.82,0,0,0-.11-.63,1.3,1.3,0,0,0-.39-.54,2.1,2.1,0,0,0-.72-.38,3.67,3.67,0,0,0-1.12-.14h-2.07l-.86,4.07Z" fill="#333"/><path d="M157.42,8.36a6.89,6.89,0,1,1-6.89-6.89,6.88,6.88,0,0,1,6.89,6.89Z" fill="#333"/><path d="M166.61,37.77c-1.35-.61-10.23-5-10.23-5s-3.15-6.71-4.78-10.39C150.07,18.91,149,18,146.79,18h-3.36a5.81,5.81,0,0,0-3.48,1.25L130.85,27a3.51,3.51,0,0,0-1.61,2.11l-2,13.09c-.28,2.09.82,3,2.07,3.23a2.4,2.4,0,0,0,2.84-1.76c.24-1.21,2.08-11.92,2.08-11.92l5.93-4.56c-1,4.55-2,9.53-2.3,11.22-.57,2.89.87,5.09,2,6.81,1,1.56,14.46,22.73,16.23,25s3.39,3.44,5.85,2.07c2.07-1.16,1.72-3.79.58-5.75s-14.69-24-14.69-24l2.27-9.82s1.57,2.25,2.38,3.51a4.28,4.28,0,0,0,1.86,1.41c1.25.69,7.32,3.44,9.16,4.28,1.64.73,3.67,1,4.48-.44a2.83,2.83,0,0,0-1.44-3.74Z" fill="#333"/><path d="M137,45.46l-3.09,10.9s-5.73,8.29-7.32,10.6c-1.2,1.75-2.1,3.87-.05,5.42,2.3,1.74,4.14-.53,5.33-1.87s5.53-7.43,6.78-9a11.26,11.26,0,0,0,1.66-2.84c.23-.59,1.34-3.88,1.91-5.47Z" fill="#333"/></g></g></svg>