<svg xmlns="http://www.w3.org/2000/svg" viewBox="0 0 213.75 35.45"><title>WTF-Logo</title><g id="Layer_2" data-name="Layer 2"><g id="Layer_1-2" data-name="Layer 1"><path d="M49.31,20.17l2-10.63h4.52L51.64,25.82H47.26L44.91,15.4,42.6,25.82H38.27L33.91,9.54h4.65l2.1,10.63L42.94,9.65h4Z" fill="#fff"/><path d="M65.37,13.25h-4.7V9.54H74.45v3.72h-4.7V25.82H65.37Z" fill="#fff"/><path d="M79.85,9.54H91v3.65H84.16v3.06h6.46v3.65H84.16v5.93H79.85Z" fill="#fff"/><path d="M104.37,25.82,106.88,14h2l-2.51,11.79Zm2.81-14,.48-2.3h2.14l-.48,2.3Z" fill="#fff"/><path d="M119.36,22.47a3.28,3.28,0,0,1-.42,1.71,3.48,3.48,0,0,1-1.11,1.15,4.87,4.87,0,0,1-1.6.65,8.71,8.71,0,0,1-3.65,0,4.41,4.41,0,0,1-1.54-.63,3.49,3.49,0,0,1-1.09-1.16,3.54,3.54,0,0,1-.42-1.81h1.89a2.19,2.19,0,0,0,.27,1.06,1.93,1.93,0,0,0,.66.67,2.81,2.81,0,0,0,1,.35,6.45,6.45,0,0,0,1.19.1,3.3,3.3,0,0,0,2.16-.57,1.83,1.83,0,0,0,.67-1.46,1.58,1.58,0,0,0-.38-1.14,2.83,2.83,0,0,0-1.38-.62l-1.32-.3a5.11,5.11,0,0,1-2.53-1.14,2.68,2.68,0,0,1-.75-2,3.23,3.23,0,0,1,1.44-2.81,4.81,4.81,0,0,1,1.54-.68,7.35,7.35,0,0,1,1.86-.23,5.06,5.06,0,0,1,3.21.88,3.54,3.54,0,0,1,1.29,2.5l-1.82.27a2.61,2.61,0,0,0-.78-1.55,3,3,0,0,0-2-.52,4.74,4.74,0,0,0-1.33.16,2.44,2.44,0,0,0-.87.43,1.55,1.55,0,0,0-.47.62,1.82,1.82,0,0,0-.14.68,1.44,1.44,0,0,0,.41,1.08,3.31,3.31,0,0,0,1.55.65l1.39.3a4.39,4.39,0,0,1,2.37,1.11A3.06,3.06,0,0,1,119.36,22.47Z" fill="#fff"/><path d="M131.67,9.54h11.66v3.6h-7.39v2.6h6.93v3.6h-6.93v2.87h7.87l-.37,3.6H131.67Z" fill="#fff"/><path d="M153.89,25.82,148.4,9.54h4.7l3.31,11.11,3.31-11.11h4.61l-5.5,16.29Z" fill="#fff"/><path d="M172.31,20.6v-.48a4.26,4.26,0,0,1,.25-1.54,4.55,4.55,0,0,1,.62-1.13,5.71,5.71,0,0,1,.8-.86q.43-.38.8-.74a4.59,4.59,0,0,0,.62-.75,1.64,1.64,0,0,0,.25-.91,1.3,1.3,0,0,0-.41-1,1.7,1.7,0,0,0-1.16-.36,1.84,1.84,0,0,0-1.24.42,2.15,2.15,0,0,0-.63,1.38l-3.81-.39a5.54,5.54,0,0,1,1.77-3.62,6,6,0,0,1,4.16-1.33,8.28,8.28,0,0,1,2.25.29,5.24,5.24,0,0,1,1.75.83,3.76,3.76,0,0,1,1.13,1.35,4,4,0,0,1,.4,1.83,4.07,4.07,0,0,1-.15,1.13,5,5,0,0,1-.38.95,4.11,4.11,0,0,1-.54.79q-.31.35-.6.65l-.89.87a6.25,6.25,0,0,0-.66.72,2.68,2.68,0,0,0-.41.74,2.76,2.76,0,0,0-.14.91v.3Zm-.07,1.28h3.85v3.95h-3.85Z" fill="#fff"/><path d="M213.75,35.45H0V0H213.75ZM3,32.45H210.75V3H3Z" fill="#fff"/></g></g></svg>